<svg width="284" height="141" viewBox="0 0 284 141" fill="none" xmlns="http://www.w3.org/2000/svg">
<rect width="8" height="80" fill="#8DA4EA"/>
<path d="M32.27 22.5L37.31 9.792H39.866L44.852 22.5H41.864L38.048 11.952H39.074L35.204 22.5H32.27ZM35.132 20.196V17.892H42.062V20.196H35.132ZM46.1967 22.5V9.792H48.1767L49.0227 12.33V22.5H46.1967ZM54.9627 22.5L47.4747 12.906L48.1767 9.792L55.6647 19.386L54.9627 22.5ZM54.9627 22.5L54.2067 19.962V9.792H57.0327V22.5H54.9627ZM63.3917 17.766L58.4957 9.792H61.7717L65.5337 16.236H63.4277L67.1897 9.792H70.3937L65.4617 17.766H63.3917ZM63.0497 22.5V16.47H65.8757V22.5H63.0497ZM80.8271 22.716C79.8791 22.716 78.9971 22.548 78.1811 22.212C77.3651 21.876 76.6511 21.408 76.0391 20.808C75.4391 20.208 74.9651 19.512 74.6171 18.72C74.2811 17.916 74.1131 17.052 74.1131 16.128C74.1131 15.192 74.2811 14.328 74.6171 13.536C74.9531 12.744 75.4211 12.054 76.0211 11.466C76.6331 10.866 77.3411 10.404 78.1451 10.08C78.9611 9.744 79.8431 9.576 80.7911 9.576C81.7511 9.576 82.6331 9.744 83.4371 10.08C84.2531 10.404 84.9611 10.866 85.5611 11.466C86.1731 12.054 86.6471 12.75 86.9831 13.554C87.3191 14.346 87.4871 15.21 87.4871 16.146C87.4871 17.07 87.3191 17.934 86.9831 18.738C86.6471 19.53 86.1731 20.226 85.5611 20.826C84.9611 21.414 84.2591 21.876 83.4551 22.212C82.6511 22.548 81.7751 22.716 80.8271 22.716ZM80.7911 20.142C81.5591 20.142 82.2251 19.974 82.7891 19.638C83.3531 19.302 83.7911 18.834 84.1031 18.234C84.4271 17.622 84.5891 16.92 84.5891 16.128C84.5891 15.528 84.4991 14.988 84.3191 14.508C84.1391 14.016 83.8811 13.596 83.5451 13.248C83.2091 12.888 82.8071 12.618 82.3391 12.438C81.8831 12.246 81.3671 12.15 80.7911 12.15C80.0351 12.15 79.3751 12.318 78.8111 12.654C78.2471 12.978 77.8031 13.44 77.4791 14.04C77.1671 14.628 77.0111 15.324 77.0111 16.128C77.0111 16.728 77.1011 17.274 77.2811 17.766C77.4611 18.258 77.7191 18.684 78.0551 19.044C78.3911 19.392 78.7871 19.662 79.2431 19.854C79.7111 20.046 80.2271 20.142 80.7911 20.142ZM86.4971 23.508L80.5571 17.568L82.1951 15.93L88.1351 21.87L86.4971 23.508ZM94.6212 22.698C93.5772 22.698 92.6532 22.476 91.8492 22.032C91.0572 21.588 90.4332 20.976 89.9772 20.196C89.5332 19.404 89.3112 18.504 89.3112 17.496V9.792H92.1552V17.658C92.1552 18.162 92.2632 18.6 92.4792 18.972C92.6952 19.344 92.9892 19.632 93.3612 19.836C93.7452 20.028 94.1652 20.124 94.6212 20.124C95.1012 20.124 95.5212 20.028 95.8812 19.836C96.2412 19.632 96.5232 19.35 96.7272 18.99C96.9432 18.618 97.0512 18.18 97.0512 17.676V9.792H99.8952V17.514C99.8952 18.522 99.6732 19.416 99.2292 20.196C98.7852 20.976 98.1672 21.588 97.3752 22.032C96.5832 22.476 95.6652 22.698 94.6212 22.698ZM102.148 22.5V9.792H104.974V22.5H102.148ZM104.308 22.5V20.052H111.274V22.5H104.308ZM104.308 17.19V14.832H110.644V17.19H104.308ZM104.308 12.222V9.792H111.184V12.222H104.308ZM115.382 17.262V15.174H118.064C118.628 15.174 119.06 15.03 119.36 14.742C119.672 14.454 119.828 14.064 119.828 13.572C119.828 13.116 119.678 12.738 119.378 12.438C119.078 12.138 118.646 11.988 118.082 11.988H115.382V9.792H118.406C119.246 9.792 119.984 9.954 120.62 10.278C121.256 10.59 121.754 11.028 122.114 11.592C122.474 12.156 122.654 12.804 122.654 13.536C122.654 14.28 122.474 14.934 122.114 15.498C121.754 16.05 121.25 16.482 120.602 16.794C119.954 17.106 119.192 17.262 118.316 17.262H115.382ZM113.222 22.5V9.792H116.048V22.5H113.222ZM120.134 22.5L116.174 17.028L118.766 16.326L123.482 22.5H120.134ZM124.718 22.5V9.792H127.544V22.5H124.718ZM129.992 22.5V9.792H132.818V22.5H129.992ZM132.152 22.5V20.052H139.118V22.5H132.152ZM132.152 17.19V14.832H138.488V17.19H132.152ZM132.152 12.222V9.792H139.028V12.222H132.152ZM144.565 22.698C143.521 22.698 142.621 22.53 141.865 22.194C141.121 21.846 140.437 21.324 139.813 20.628L141.649 18.81C142.057 19.278 142.507 19.644 142.999 19.908C143.503 20.16 144.085 20.286 144.745 20.286C145.345 20.286 145.807 20.178 146.131 19.962C146.467 19.746 146.635 19.446 146.635 19.062C146.635 18.714 146.527 18.432 146.311 18.216C146.095 18 145.807 17.814 145.447 17.658C145.099 17.502 144.709 17.352 144.277 17.208C143.857 17.064 143.437 16.902 143.017 16.722C142.597 16.53 142.207 16.296 141.847 16.02C141.499 15.732 141.217 15.378 141.001 14.958C140.785 14.526 140.677 13.986 140.677 13.338C140.677 12.558 140.863 11.886 141.235 11.322C141.619 10.758 142.147 10.332 142.819 10.044C143.491 9.744 144.265 9.594 145.141 9.594C146.029 9.594 146.839 9.75 147.571 10.062C148.315 10.374 148.927 10.8 149.407 11.34L147.571 13.158C147.187 12.762 146.797 12.468 146.401 12.276C146.017 12.084 145.579 11.988 145.087 11.988C144.595 11.988 144.205 12.084 143.917 12.276C143.629 12.456 143.485 12.72 143.485 13.068C143.485 13.392 143.593 13.656 143.809 13.86C144.025 14.052 144.307 14.22 144.655 14.364C145.015 14.508 145.405 14.652 145.825 14.796C146.257 14.94 146.683 15.108 147.103 15.3C147.523 15.492 147.907 15.738 148.255 16.038C148.615 16.326 148.903 16.698 149.119 17.154C149.335 17.598 149.443 18.15 149.443 18.81C149.443 20.022 149.011 20.976 148.147 21.672C147.283 22.356 146.089 22.698 144.565 22.698ZM153.62 17.91L153.476 14.454H154.25C154.55 14.454 154.808 14.4 155.024 14.292C155.252 14.184 155.426 14.034 155.546 13.842C155.678 13.638 155.744 13.398 155.744 13.122C155.744 12.858 155.684 12.63 155.564 12.438C155.444 12.234 155.276 12.084 155.06 11.988C154.844 11.88 154.592 11.826 154.304 11.826C153.86 11.826 153.452 11.958 153.08 12.222C152.72 12.474 152.426 12.822 152.198 13.266L150.434 11.61C150.794 10.902 151.316 10.332 152 9.9C152.684 9.456 153.494 9.234 154.43 9.234C155.21 9.234 155.9 9.396 156.5 9.72C157.1 10.044 157.568 10.488 157.904 11.052C158.24 11.604 158.408 12.228 158.408 12.924C158.408 13.632 158.264 14.238 157.976 14.742C157.688 15.246 157.298 15.66 156.806 15.984C156.314 16.296 155.756 16.518 155.132 16.65L155.942 15.588L155.78 17.91H153.62ZM154.7 22.698C154.22 22.698 153.824 22.536 153.512 22.212C153.212 21.888 153.062 21.498 153.062 21.042C153.062 20.562 153.212 20.166 153.512 19.854C153.824 19.53 154.22 19.368 154.7 19.368C155.168 19.368 155.552 19.53 155.852 19.854C156.164 20.166 156.32 20.562 156.32 21.042C156.32 21.498 156.164 21.888 155.852 22.212C155.552 22.536 155.168 22.698 154.7 22.698ZM167.614 22.5L162.718 9.792H165.742L169.468 20.07H168.226L172.006 9.792H174.994L170.044 22.5H167.614ZM176.486 22.5V9.792H179.312V22.5H176.486ZM185.329 22.698C184.285 22.698 183.385 22.53 182.629 22.194C181.885 21.846 181.201 21.324 180.577 20.628L182.413 18.81C182.821 19.278 183.271 19.644 183.763 19.908C184.267 20.16 184.849 20.286 185.509 20.286C186.109 20.286 186.571 20.178 186.895 19.962C187.231 19.746 187.399 19.446 187.399 19.062C187.399 18.714 187.291 18.432 187.075 18.216C186.859 18 186.571 17.814 186.211 17.658C185.863 17.502 185.473 17.352 185.041 17.208C184.621 17.064 184.201 16.902 183.781 16.722C183.361 16.53 182.971 16.296 182.611 16.02C182.263 15.732 181.981 15.378 181.765 14.958C181.549 14.526 181.441 13.986 181.441 13.338C181.441 12.558 181.627 11.886 181.999 11.322C182.383 10.758 182.911 10.332 183.583 10.044C184.255 9.744 185.029 9.594 185.905 9.594C186.793 9.594 187.603 9.75 188.335 10.062C189.079 10.374 189.691 10.8 190.171 11.34L188.335 13.158C187.951 12.762 187.561 12.468 187.165 12.276C186.781 12.084 186.343 11.988 185.851 11.988C185.359 11.988 184.969 12.084 184.681 12.276C184.393 12.456 184.249 12.72 184.249 13.068C184.249 13.392 184.357 13.656 184.573 13.86C184.789 14.052 185.071 14.22 185.419 14.364C185.779 14.508 186.169 14.652 186.589 14.796C187.021 14.94 187.447 15.108 187.867 15.3C188.287 15.492 188.671 15.738 189.019 16.038C189.379 16.326 189.667 16.698 189.883 17.154C190.099 17.598 190.207 18.15 190.207 18.81C190.207 20.022 189.775 20.976 188.911 21.672C188.047 22.356 186.853 22.698 185.329 22.698ZM192.007 22.5V9.792H194.833V22.5H192.007ZM200.395 22.5V9.972H203.221V22.5H200.395ZM196.417 12.258V9.792H207.199V12.258H196.417ZM217.035 22.698C215.991 22.698 215.067 22.476 214.263 22.032C213.471 21.588 212.847 20.976 212.391 20.196C211.947 19.404 211.725 18.504 211.725 17.496V9.792H214.569V17.658C214.569 18.162 214.677 18.6 214.893 18.972C215.109 19.344 215.403 19.632 215.775 19.836C216.159 20.028 216.579 20.124 217.035 20.124C217.515 20.124 217.935 20.028 218.295 19.836C218.655 19.632 218.937 19.35 219.141 18.99C219.357 18.618 219.465 18.18 219.465 17.676V9.792H222.309V17.514C222.309 18.522 222.087 19.416 221.643 20.196C221.199 20.976 220.581 21.588 219.789 22.032C218.997 22.476 218.079 22.698 217.035 22.698ZM228.237 22.698C227.193 22.698 226.293 22.53 225.537 22.194C224.793 21.846 224.109 21.324 223.485 20.628L225.321 18.81C225.729 19.278 226.179 19.644 226.671 19.908C227.175 20.16 227.757 20.286 228.417 20.286C229.017 20.286 229.479 20.178 229.803 19.962C230.139 19.746 230.307 19.446 230.307 19.062C230.307 18.714 230.199 18.432 229.983 18.216C229.767 18 229.479 17.814 229.119 17.658C228.771 17.502 228.381 17.352 227.949 17.208C227.529 17.064 227.109 16.902 226.689 16.722C226.269 16.53 225.879 16.296 225.519 16.02C225.171 15.732 224.889 15.378 224.673 14.958C224.457 14.526 224.349 13.986 224.349 13.338C224.349 12.558 224.535 11.886 224.907 11.322C225.291 10.758 225.819 10.332 226.491 10.044C227.163 9.744 227.937 9.594 228.813 9.594C229.701 9.594 230.511 9.75 231.243 10.062C231.987 10.374 232.599 10.8 233.079 11.34L231.243 13.158C230.859 12.762 230.469 12.468 230.073 12.276C229.689 12.084 229.251 11.988 228.759 11.988C228.267 11.988 227.877 12.084 227.589 12.276C227.301 12.456 227.157 12.72 227.157 13.068C227.157 13.392 227.265 13.656 227.481 13.86C227.697 14.052 227.979 14.22 228.327 14.364C228.687 14.508 229.077 14.652 229.497 14.796C229.929 14.94 230.355 15.108 230.775 15.3C231.195 15.492 231.579 15.738 231.927 16.038C232.287 16.326 232.575 16.698 232.791 17.154C233.007 17.598 233.115 18.15 233.115 18.81C233.115 20.022 232.683 20.976 231.819 21.672C230.955 22.356 229.761 22.698 228.237 22.698ZM244.409 22.716C243.449 22.716 242.561 22.548 241.745 22.212C240.941 21.876 240.233 21.408 239.621 20.808C239.009 20.208 238.535 19.512 238.199 18.72C237.863 17.916 237.695 17.052 237.695 16.128C237.695 15.192 237.863 14.328 238.199 13.536C238.535 12.744 239.003 12.054 239.603 11.466C240.203 10.866 240.905 10.404 241.709 10.08C242.525 9.744 243.413 9.576 244.373 9.576C245.321 9.576 246.197 9.744 247.001 10.08C247.817 10.404 248.525 10.866 249.125 11.466C249.737 12.054 250.211 12.75 250.547 13.554C250.883 14.346 251.051 15.21 251.051 16.146C251.051 17.07 250.883 17.934 250.547 18.738C250.211 19.53 249.743 20.226 249.143 20.826C248.543 21.414 247.835 21.876 247.019 22.212C246.215 22.548 245.345 22.716 244.409 22.716ZM244.373 20.142C245.129 20.142 245.789 19.974 246.353 19.638C246.929 19.302 247.373 18.834 247.685 18.234C247.997 17.622 248.153 16.92 248.153 16.128C248.153 15.528 248.063 14.988 247.883 14.508C247.703 14.016 247.445 13.596 247.109 13.248C246.773 12.888 246.371 12.618 245.903 12.438C245.447 12.246 244.937 12.15 244.373 12.15C243.617 12.15 242.951 12.318 242.375 12.654C241.811 12.978 241.373 13.44 241.061 14.04C240.749 14.628 240.593 15.324 240.593 16.128C240.593 16.728 240.683 17.274 240.863 17.766C241.043 18.258 241.295 18.684 241.619 19.044C241.955 19.392 242.357 19.662 242.825 19.854C243.293 20.046 243.809 20.142 244.373 20.142ZM252.845 22.5V9.792H254.825L255.671 12.33V22.5H252.845ZM261.611 22.5L254.123 12.906L254.825 9.792L262.313 19.386L261.611 22.5ZM261.611 22.5L260.855 19.962V9.792H263.681V22.5H261.611Z" fill="white"/>
<path d="M36.152 68.5L32.12 56.836H35.72L38.216 65.308L37.16 65.332L39.92 56.836H42.896L45.68 65.332L44.6 65.308L47.12 56.836H50.72L46.688 68.5H43.688L40.976 60.436H41.888L39.128 68.5H36.152ZM54.4567 68.5L50.4247 56.836H54.0247L56.5207 65.308L55.4647 65.332L58.2247 56.836H61.2007L63.9847 65.332L62.9047 65.308L65.4247 56.836H69.0247L64.9927 68.5H61.9927L59.2807 60.436H60.1927L57.4327 68.5H54.4567ZM72.7614 68.5L68.7294 56.836H72.3294L74.8254 65.308L73.7694 65.332L76.5294 56.836H79.5054L82.2894 65.332L81.2094 65.308L83.7294 56.836H87.3294L83.2974 68.5H80.2974L77.5854 60.436H78.4974L75.7374 68.5H72.7614ZM90.4203 68.764C89.7963 68.764 89.2763 68.548 88.8603 68.116C88.4443 67.684 88.2363 67.164 88.2363 66.556C88.2363 65.916 88.4443 65.388 88.8603 64.972C89.2763 64.54 89.7963 64.324 90.4203 64.324C91.0603 64.324 91.5803 64.54 91.9803 64.972C92.3963 65.388 92.6043 65.916 92.6043 66.556C92.6043 67.164 92.3963 67.684 91.9803 68.116C91.5803 68.548 91.0603 68.764 90.4203 68.764ZM103.016 68.5V61.852C103.016 61.244 102.824 60.756 102.44 60.388C102.072 60.004 101.6 59.812 101.024 59.812C100.624 59.812 100.272 59.9 99.9676 60.076C99.6636 60.236 99.4236 60.476 99.2476 60.796C99.0716 61.1 98.9836 61.452 98.9836 61.852L97.5676 61.156C97.5676 60.244 97.7676 59.444 98.1676 58.756C98.5676 58.068 99.1196 57.54 99.8236 57.172C100.544 56.788 101.352 56.596 102.248 56.596C103.112 56.596 103.872 56.804 104.528 57.22C105.2 57.62 105.728 58.156 106.112 58.828C106.496 59.5 106.688 60.236 106.688 61.036V68.5H103.016ZM95.3116 68.5V56.836H98.9836V68.5H95.3116ZM109.046 68.5V56.836H112.718V68.5H109.046ZM110.894 55.228C110.318 55.228 109.838 55.036 109.454 54.652C109.086 54.252 108.902 53.772 108.902 53.212C108.902 52.636 109.086 52.156 109.454 51.772C109.838 51.388 110.318 51.196 110.894 51.196C111.47 51.196 111.942 51.388 112.31 51.772C112.678 52.156 112.862 52.636 112.862 53.212C112.862 53.772 112.678 54.252 112.31 54.652C111.942 55.036 111.47 55.228 110.894 55.228ZM120.944 68.764C119.744 68.764 118.656 68.5 117.68 67.972C116.704 67.444 115.936 66.716 115.376 65.788C114.816 64.86 114.536 63.82 114.536 62.668C114.536 61.5 114.816 60.46 115.376 59.548C115.952 58.62 116.728 57.892 117.704 57.364C118.68 56.836 119.776 56.572 120.992 56.572C121.904 56.572 122.736 56.732 123.488 57.052C124.256 57.356 124.936 57.82 125.528 58.444L123.176 60.796C122.904 60.492 122.584 60.268 122.216 60.124C121.864 59.98 121.456 59.908 120.992 59.908C120.464 59.908 119.992 60.028 119.576 60.268C119.176 60.492 118.856 60.812 118.616 61.228C118.392 61.628 118.28 62.1 118.28 62.644C118.28 63.188 118.392 63.668 118.616 64.084C118.856 64.5 119.184 64.828 119.6 65.068C120.016 65.308 120.48 65.428 120.992 65.428C121.472 65.428 121.896 65.348 122.264 65.188C122.648 65.012 122.976 64.772 123.248 64.468L125.576 66.82C124.968 67.46 124.28 67.948 123.512 68.284C122.744 68.604 121.888 68.764 120.944 68.764ZM134.674 68.5L130.594 62.452L134.65 56.836H138.754L133.858 63.148L133.978 61.636L138.994 68.5H134.674ZM127.21 68.5V51.076H130.882V68.5H127.21ZM145.556 68.764C144.292 68.764 143.164 68.508 142.172 67.996C141.196 67.468 140.428 66.74 139.868 65.812C139.308 64.884 139.028 63.836 139.028 62.668C139.028 61.5 139.3 60.46 139.844 59.548C140.404 58.62 141.156 57.892 142.1 57.364C143.044 56.836 144.108 56.572 145.292 56.572C146.444 56.572 147.46 56.82 148.34 57.316C149.22 57.812 149.908 58.5 150.404 59.38C150.916 60.26 151.172 61.268 151.172 62.404C151.172 62.612 151.156 62.836 151.124 63.076C151.108 63.3 151.068 63.564 151.004 63.868L140.948 63.892V61.372L149.444 61.348L147.86 62.404C147.844 61.732 147.74 61.18 147.548 60.748C147.356 60.3 147.068 59.964 146.684 59.74C146.316 59.5 145.86 59.38 145.316 59.38C144.74 59.38 144.236 59.516 143.804 59.788C143.388 60.044 143.06 60.412 142.82 60.892C142.596 61.372 142.484 61.956 142.484 62.644C142.484 63.332 142.604 63.924 142.844 64.42C143.1 64.9 143.452 65.276 143.9 65.548C144.364 65.804 144.908 65.932 145.532 65.932C146.108 65.932 146.628 65.836 147.092 65.644C147.556 65.436 147.964 65.132 148.316 64.732L150.332 66.748C149.756 67.42 149.06 67.924 148.244 68.26C147.428 68.596 146.532 68.764 145.556 68.764ZM152.944 68.5V51.076H156.616V68.5H152.944ZM160.69 68.5V55.828C160.69 54.884 160.898 54.036 161.314 53.284C161.746 52.516 162.346 51.916 163.114 51.484C163.882 51.036 164.794 50.812 165.85 50.812C166.65 50.812 167.346 50.948 167.938 51.22C168.546 51.476 169.074 51.836 169.522 52.3L167.218 54.604C167.058 54.444 166.874 54.324 166.666 54.244C166.474 54.148 166.242 54.1 165.97 54.1C165.474 54.1 165.082 54.244 164.794 54.532C164.506 54.82 164.362 55.212 164.362 55.708V68.5H160.69ZM158.122 59.956V56.836H167.722V59.956H158.122ZM174.756 68.764C173.556 68.764 172.468 68.5 171.492 67.972C170.532 67.428 169.772 66.692 169.212 65.764C168.652 64.836 168.372 63.796 168.372 62.644C168.372 61.492 168.652 60.46 169.212 59.548C169.772 58.636 170.532 57.916 171.492 57.388C172.452 56.844 173.54 56.572 174.756 56.572C175.972 56.572 177.06 56.836 178.02 57.364C178.98 57.892 179.74 58.62 180.3 59.548C180.86 60.46 181.14 61.492 181.14 62.644C181.14 63.796 180.86 64.836 180.3 65.764C179.74 66.692 178.98 67.428 178.02 67.972C177.06 68.5 175.972 68.764 174.756 68.764ZM174.756 65.428C175.284 65.428 175.748 65.316 176.148 65.092C176.548 64.852 176.852 64.524 177.06 64.108C177.284 63.676 177.396 63.188 177.396 62.644C177.396 62.1 177.284 61.628 177.06 61.228C176.836 60.812 176.524 60.492 176.124 60.268C175.74 60.028 175.284 59.908 174.756 59.908C174.244 59.908 173.788 60.028 173.388 60.268C172.988 60.492 172.676 60.812 172.452 61.228C172.228 61.644 172.116 62.124 172.116 62.668C172.116 63.196 172.228 63.676 172.452 64.108C172.676 64.524 172.988 64.852 173.388 65.092C173.788 65.316 174.244 65.428 174.756 65.428ZM189.887 68.5L187.079 63.964L186.287 63.46L181.703 56.836H185.999L188.615 61.084L189.383 61.564L194.135 68.5H189.887ZM181.487 68.5L186.263 61.708L188.351 64.06L185.495 68.5H181.487ZM189.359 63.436L187.271 61.084L189.911 56.836H193.895L189.359 63.436ZM197.834 68.764C197.21 68.764 196.69 68.548 196.274 68.116C195.858 67.684 195.65 67.164 195.65 66.556C195.65 65.916 195.858 65.388 196.274 64.972C196.69 64.54 197.21 64.324 197.834 64.324C198.474 64.324 198.994 64.54 199.394 64.972C199.81 65.388 200.018 65.916 200.018 66.556C200.018 67.164 199.81 67.684 199.394 68.116C198.994 68.548 198.474 68.764 197.834 68.764ZM208.061 68.764C206.861 68.764 205.773 68.5 204.797 67.972C203.821 67.444 203.053 66.716 202.493 65.788C201.933 64.86 201.653 63.82 201.653 62.668C201.653 61.5 201.933 60.46 202.493 59.548C203.069 58.62 203.845 57.892 204.821 57.364C205.797 56.836 206.893 56.572 208.109 56.572C209.021 56.572 209.853 56.732 210.605 57.052C211.373 57.356 212.053 57.82 212.645 58.444L210.293 60.796C210.021 60.492 209.701 60.268 209.333 60.124C208.981 59.98 208.573 59.908 208.109 59.908C207.581 59.908 207.109 60.028 206.693 60.268C206.293 60.492 205.973 60.812 205.733 61.228C205.509 61.628 205.397 62.1 205.397 62.644C205.397 63.188 205.509 63.668 205.733 64.084C205.973 64.5 206.301 64.828 206.717 65.068C207.133 65.308 207.597 65.428 208.109 65.428C208.589 65.428 209.013 65.348 209.381 65.188C209.765 65.012 210.093 64.772 210.365 64.468L212.693 66.82C212.085 67.46 211.397 67.948 210.629 68.284C209.861 68.604 209.005 68.764 208.061 68.764ZM219.662 68.764C218.462 68.764 217.374 68.5 216.398 67.972C215.438 67.428 214.678 66.692 214.118 65.764C213.558 64.836 213.278 63.796 213.278 62.644C213.278 61.492 213.558 60.46 214.118 59.548C214.678 58.636 215.438 57.916 216.398 57.388C217.358 56.844 218.446 56.572 219.662 56.572C220.878 56.572 221.966 56.836 222.926 57.364C223.886 57.892 224.646 58.62 225.206 59.548C225.766 60.46 226.046 61.492 226.046 62.644C226.046 63.796 225.766 64.836 225.206 65.764C224.646 66.692 223.886 67.428 222.926 67.972C221.966 68.5 220.878 68.764 219.662 68.764ZM219.662 65.428C220.19 65.428 220.654 65.316 221.054 65.092C221.454 64.852 221.758 64.524 221.966 64.108C222.19 63.676 222.302 63.188 222.302 62.644C222.302 62.1 222.19 61.628 221.966 61.228C221.742 60.812 221.43 60.492 221.03 60.268C220.646 60.028 220.19 59.908 219.662 59.908C219.15 59.908 218.694 60.028 218.294 60.268C217.894 60.492 217.582 60.812 217.358 61.228C217.134 61.644 217.022 62.124 217.022 62.668C217.022 63.196 217.134 63.676 217.358 64.108C217.582 64.524 217.894 64.852 218.294 65.092C218.694 65.316 219.15 65.428 219.662 65.428ZM227.874 68.5V56.836H231.546V68.5H227.874ZM235.338 68.5V61.684C235.338 61.092 235.154 60.636 234.786 60.316C234.434 59.98 233.994 59.812 233.466 59.812C233.098 59.812 232.77 59.892 232.482 60.052C232.194 60.196 231.962 60.404 231.786 60.676C231.626 60.948 231.546 61.284 231.546 61.684L230.13 61.06C230.13 60.132 230.33 59.34 230.73 58.684C231.13 58.012 231.674 57.5 232.362 57.148C233.05 56.78 233.826 56.596 234.69 56.596C235.506 56.596 236.234 56.78 236.874 57.148C237.53 57.516 238.05 58.028 238.434 58.684C238.818 59.34 239.01 60.124 239.01 61.036V68.5H235.338ZM242.802 68.5V61.684C242.802 61.092 242.618 60.636 242.25 60.316C241.898 59.98 241.458 59.812 240.93 59.812C240.562 59.812 240.234 59.892 239.946 60.052C239.658 60.196 239.426 60.404 239.25 60.676C239.09 60.948 239.01 61.284 239.01 61.684L236.898 61.396C236.93 60.404 237.162 59.556 237.594 58.852C238.042 58.132 238.626 57.58 239.346 57.196C240.082 56.796 240.906 56.596 241.818 56.596C242.714 56.596 243.506 56.788 244.194 57.172C244.898 57.54 245.45 58.076 245.85 58.78C246.266 59.468 246.474 60.3 246.474 61.276V68.5H242.802Z" fill="white"/>
<g clip-path="url(#clip0_1_937)">
<path d="M-0.000244141 130.24C-0.000244141 128.383 0.457139 126.669 1.37187 125.099C2.28661 123.529 3.52903 122.287 5.09909 121.372C6.66917 120.457 8.38261 120 10.2394 120C12.0962 120 13.8096 120.457 15.3797 121.372C16.9498 122.287 18.1922 123.529 19.1069 125.099C20.0216 126.669 20.479 128.383 20.479 130.24C20.479 132.096 20.0216 133.81 19.1069 135.38C18.1922 136.95 16.9498 138.192 15.3797 139.107C13.8096 140.022 12.0962 140.479 10.2394 140.479C8.38261 140.479 6.66917 140.022 5.09909 139.107C3.52903 138.192 2.28661 136.95 1.37187 135.38C0.457139 133.81 -0.000244141 132.096 -0.000244141 130.24ZM1.69953 130.24C1.69953 132.369 2.41631 134.247 3.84985 135.871C4.50519 134.588 5.54281 133.366 6.9627 132.206C8.38261 131.045 9.76836 130.315 11.12 130.014C10.9152 129.537 10.7172 129.106 10.5261 128.724C8.17782 129.475 5.63839 129.851 2.90781 129.851C2.37535 129.851 1.97942 129.844 1.72001 129.83C1.72001 129.885 1.71661 129.953 1.70977 130.035C1.70295 130.117 1.69953 130.185 1.69953 130.24ZM1.96576 128.13C2.26613 128.158 2.70986 128.171 3.29691 128.171C5.57695 128.171 7.74091 127.864 9.78884 127.25C8.75124 125.407 7.61122 123.871 6.3688 122.642C5.29024 123.188 4.36526 123.946 3.59386 124.915C2.82249 125.884 2.27979 126.956 1.96576 128.13ZM5.01717 136.977C6.55996 138.179 8.30069 138.779 10.2394 138.779C11.2497 138.779 12.2532 138.588 13.2498 138.206C12.9768 135.871 12.4443 133.612 11.6524 131.427C10.3964 131.7 9.1301 132.39 7.85355 133.496C6.57701 134.602 5.63155 135.762 5.01717 136.977ZM8.1505 121.986C9.35195 123.229 10.4647 124.778 11.4886 126.635C13.3454 125.857 14.7448 124.867 15.6869 123.666C14.1031 122.355 12.2873 121.7 10.2394 121.7C9.54309 121.7 8.84679 121.795 8.1505 121.986ZM12.2259 128.089C12.4307 128.526 12.6628 129.079 12.9222 129.748C13.9325 129.653 15.0315 129.605 16.2193 129.605C17.0658 129.605 17.9055 129.625 18.7383 129.666C18.6291 127.809 17.9601 126.157 16.7313 124.71C15.8439 126.035 14.3421 127.161 12.2259 128.089ZM13.4341 131.182C14.1304 133.202 14.6015 135.278 14.8472 137.407C15.9258 136.711 16.8064 135.817 17.489 134.725C18.1717 133.632 18.5813 132.451 18.7178 131.182C17.7211 131.113 16.8132 131.079 15.994 131.079C15.2432 131.079 14.3898 131.113 13.4341 131.182Z" fill="white"/>
</g>
<g clip-path="url(#clip1_1_937)">
<path d="M59.3065 130.24C59.3065 128.355 60.8341 126.826 62.7191 126.826C64.6041 126.826 66.1326 128.355 66.1326 130.24C66.1326 132.125 64.6041 133.653 62.7191 133.653C60.8341 133.653 59.3065 132.125 59.3065 130.24ZM57.4612 130.24C57.4612 133.144 59.8151 135.498 62.7191 135.498C65.6231 135.498 67.9771 133.144 67.9771 130.24C67.9771 127.336 65.6231 124.982 62.7191 124.982C59.8151 124.982 57.4612 127.336 57.4612 130.24ZM66.9564 124.773C66.9564 125.451 67.5064 126.002 68.1855 126.002C68.8637 126.002 69.4146 125.451 69.4146 124.773C69.4146 124.095 68.8645 123.545 68.1855 123.545C67.5064 123.545 66.9564 124.095 66.9564 124.773ZM58.5819 138.574C57.5836 138.529 57.041 138.363 56.6804 138.222C56.2023 138.036 55.8615 137.814 55.5026 137.456C55.1444 137.098 54.9219 136.757 54.7367 136.279C54.5961 135.919 54.4298 135.376 54.3843 134.378C54.3347 133.298 54.3248 132.974 54.3248 130.24C54.3248 127.505 54.3355 127.182 54.3843 126.102C54.4298 125.103 54.5969 124.562 54.7367 124.2C54.9228 123.722 55.1444 123.381 55.5026 123.022C55.8607 122.664 56.2015 122.442 56.6804 122.256C57.041 122.116 57.5836 121.949 58.5819 121.904C59.6613 121.854 59.9855 121.844 62.7191 121.844C65.4535 121.844 65.7769 121.855 66.8571 121.904C67.8555 121.949 68.3972 122.117 68.7587 122.256C69.2367 122.442 69.5775 122.664 69.9365 123.022C70.2946 123.38 70.5163 123.722 70.7024 124.2C70.843 124.561 71.0092 125.103 71.0547 126.102C71.1044 127.182 71.1143 127.505 71.1143 130.24C71.1143 132.973 71.1044 133.297 71.0547 134.378C71.0092 135.376 70.8422 135.919 70.7024 136.279C70.5163 136.757 70.2946 137.098 69.9365 137.456C69.5783 137.814 69.2367 138.036 68.7587 138.222C68.3981 138.363 67.8555 138.529 66.8571 138.574C65.7778 138.624 65.4535 138.634 62.7191 138.634C59.9855 138.634 59.6613 138.624 58.5819 138.574ZM58.4975 120.062C57.4074 120.112 56.663 120.285 56.0121 120.538C55.3388 120.799 54.7681 121.15 54.1982 121.719C53.6292 122.288 53.2785 122.858 53.0171 123.533C52.764 124.184 52.5912 124.928 52.5415 126.018C52.4911 127.11 52.4795 127.459 52.4795 130.24C52.4795 133.02 52.4911 133.369 52.5415 134.461C52.5912 135.551 52.764 136.296 53.0171 136.947C53.2785 137.62 53.6283 138.191 54.1982 138.761C54.7673 139.33 55.338 139.679 56.0121 139.942C56.6638 140.195 57.4074 140.368 58.4975 140.417C59.5902 140.467 59.9384 140.479 62.7191 140.479C65.5007 140.479 65.8489 140.468 66.9407 140.417C68.0308 140.368 68.7752 140.195 69.4262 139.942C70.0994 139.679 70.6701 139.33 71.24 138.761C71.8091 138.191 72.1589 137.62 72.4211 136.947C72.6742 136.296 72.8479 135.551 72.8967 134.461C72.9463 133.369 72.9579 133.02 72.9579 130.24C72.9579 127.459 72.9463 127.11 72.8967 126.018C72.8471 124.928 72.6742 124.184 72.4211 123.533C72.1589 122.859 71.8091 122.289 71.24 121.719C70.671 121.15 70.0994 120.799 69.427 120.538C68.7752 120.285 68.0308 120.111 66.9415 120.062C65.8497 120.012 65.5007 120 62.7199 120C59.9384 120 59.5902 120.012 58.4975 120.062Z" fill="white"/>
</g>
<path d="M112.049 139.405C120.558 139.405 125.211 132.353 125.211 126.238C125.211 126.038 125.207 125.839 125.198 125.64C126.103 124.985 126.885 124.173 127.505 123.244C126.676 123.613 125.784 123.861 124.849 123.973C125.804 123.4 126.537 122.493 126.883 121.413C125.975 121.952 124.981 122.332 123.946 122.536C123.101 121.637 121.9 121.074 120.569 121.074C118.014 121.074 115.943 123.147 115.943 125.701C115.943 126.064 115.983 126.417 116.063 126.756C112.218 126.563 108.809 124.721 106.528 121.921C106.117 122.628 105.9 123.43 105.901 124.247C105.901 125.853 106.718 127.27 107.96 128.099C107.225 128.077 106.507 127.878 105.865 127.52C105.864 127.54 105.864 127.559 105.864 127.58C105.864 129.821 107.458 131.692 109.575 132.116C109.178 132.224 108.767 132.279 108.355 132.279C108.058 132.279 107.768 132.249 107.486 132.195C108.075 134.034 109.783 135.372 111.807 135.409C110.224 136.651 108.23 137.39 106.062 137.39C105.693 137.39 105.325 137.369 104.958 137.326C107.006 138.639 109.437 139.405 112.049 139.405" fill="white"/>
<g clip-path="url(#clip2_1_937)">
<path d="M159.505 122.575C159.505 121.903 159.741 121.349 160.211 120.912C160.682 120.475 161.294 120.256 162.047 120.256C162.786 120.256 163.385 120.471 163.842 120.901C164.312 121.345 164.548 121.923 164.548 122.636C164.548 123.281 164.319 123.819 163.862 124.249C163.391 124.693 162.773 124.915 162.006 124.915H161.986C161.247 124.915 160.648 124.693 160.191 124.249C159.734 123.806 159.505 123.248 159.505 122.575ZM159.768 140.223V126.75H164.245V140.223H159.768ZM166.726 140.223H171.203V132.7C171.203 132.23 171.257 131.867 171.365 131.611C171.553 131.154 171.839 130.767 172.222 130.451C172.605 130.135 173.086 129.977 173.664 129.977C175.17 129.977 175.923 130.993 175.923 133.023V140.223H180.4V132.499C180.4 130.509 179.93 128.999 178.989 127.971C178.047 126.942 176.804 126.428 175.257 126.428C173.523 126.428 172.171 127.174 171.203 128.666V128.707H171.183L171.203 128.666V126.75H166.726C166.753 127.181 166.766 128.519 166.766 130.764C166.766 133.01 166.753 136.163 166.726 140.223Z" fill="white"/>
</g>
<path fill-rule="evenodd" clip-rule="evenodd" d="M221.238 130.24H218.576V140.096H214.127V130.24H212.4V126.918H214.127V124.802C214.127 122.031 215.28 120.383 218.546 120.383H221.856V123.69H219.931C218.658 123.69 218.576 124.165 218.576 125.049L218.572 126.914H221.598L221.234 130.236L221.238 130.24Z" fill="white"/>
<g clip-path="url(#clip3_1_937)">
<path d="M265.652 129.26C265.652 129.26 268.418 129.055 268.418 125.812C268.418 122.569 266.155 120.986 263.29 120.986H253.859V139.109H263.29C263.29 139.109 269.046 139.291 269.046 133.76C269.046 133.76 269.297 129.26 265.652 129.26ZM262.611 124.207H263.29C263.29 124.207 264.571 124.207 264.571 126.093C264.571 127.978 263.818 128.252 262.963 128.252H258.014V124.207H262.611ZM263.023 135.888H258.014V131.045H263.29C263.29 131.045 265.2 131.02 265.2 133.534C265.2 135.653 263.773 135.872 263.023 135.888ZM276.724 125.597C269.755 125.597 269.761 132.56 269.761 132.56C269.761 132.56 269.283 139.488 276.724 139.488C276.724 139.488 282.925 139.842 282.925 134.669H279.736C279.736 134.669 279.842 136.617 276.83 136.617C276.83 136.617 273.641 136.831 273.641 133.464H283.031C283.031 133.464 284.059 125.597 276.724 125.597ZM273.606 131.045C273.606 131.045 273.995 128.252 276.795 128.252C279.594 128.252 279.559 131.045 279.559 131.045H273.606ZM280.302 124.286H272.825V122.054H280.302V124.286Z" fill="white"/>
</g>
<defs>
<clipPath id="clip0_1_937">
<rect width="20.4792" height="20.4792" fill="white" transform="translate(0 120)"/>
</clipPath>
<clipPath id="clip1_1_937">
<rect width="20.4792" height="20.4792" fill="white" transform="translate(52.4792 120)"/>
</clipPath>
<clipPath id="clip2_1_937">
<rect width="20.895" height="19.9673" fill="white" transform="translate(159.505 120.256)"/>
</clipPath>
<clipPath id="clip3_1_937">
<rect width="29.2267" height="18.5064" fill="white" transform="translate(253.856 120.986)"/>
</clipPath>
</defs>
</svg>
